# xmcd
#
# Track frame offsets:
#	150
#	22665
#	37411
#	59503
#	80977
#	100975
#	120123
#	138247
#	156212
#	174474
#	189792
#	207393
#	232822
#	249614
#	265580
#	293143
#
# Disc length: 3917 seconds
#
# Revision: 1
# Processed by: cddbd v1.5.2PL0 Copyright (c) Steve Scherf et al.
# Submitted via: audiograbber 1.83.01
#
DISCID=d60f4b10
DTITLE=Various Artist - SC9013
DYEAR=1900
DGENRE=Country
TTITLE0=Rascal Flatts - Winner at a Losing game
TTITLE1=Joe Nichols - Another Side of You
TTITLE2=Brad Paisley - Letter To Me
TTITLE3=Kenny Chesney and George Strait - ShiftWork
TTITLE4=Alison Krauss - Simple Love
TTITLE5=Martina McBride - For These Times
TTITLE6=Brooks and Dunn - God Must Be Busy
TTITLE7=Rodney Atkins - Cleaning This Gun
TTITLE8=Craig Morgan - International Harvester
TTITLE9=Miranda Lambert - Gunpowder and Lead
TTITLE10=Gary Allan - Watching Airplanes
TTITLE11=Keith Urban - Everybody
TTITLE12=Kenny Chesney - Summertime
TTITLE13=Garth Brooks - More Than a Memory
TTITLE14=Taylor Swift - Our Song
TTITLE15=None - Data Track
EXTD=
EXTT0=
EXTT1=
EXTT2=
EXTT3=
EXTT4=
EXTT5=
EXTT6=
EXTT7=
EXTT8=
EXTT9=
EXTT10=
EXTT11=
EXTT12=
EXTT13=
EXTT14=
EXTT15=
PLAYORDER=
